<?xml version="1.0" encoding="UTF-8" standalone="no"?>
<svg
   xmlns:dc="http://purl.org/dc/elements/1.1/"
   xmlns:cc="http://creativecommons.org/ns#"
   xmlns:rdf="http://www.w3.org/1999/02/22-rdf-syntax-ns#"
   xmlns:svg="http://www.w3.org/2000/svg"
   xmlns="http://www.w3.org/2000/svg"
   xmlns:xlink="http://www.w3.org/1999/xlink"
   xmlns:sodipodi="http://sodipodi.sourceforge.net/DTD/sodipodi-0.dtd"
   xmlns:inkscape="http://www.inkscape.org/namespaces/inkscape"
   sodipodi:docname="ATProp.svg"
   inkscape:version="1.0 (4035a4fb49, 2020-05-01)"
   id="svg8"
   version="1.1"
   viewBox="0 0 210 100"
   height="100mm"
   width="210mm">
  <defs
     id="defs2">
    <g
       id="g7859">
      <symbol
         id="symbol2092"
         overflow="visible">
        <path
           id="path3045"
           d=""
           style="stroke:none;" />
      </symbol>
      <symbol
         id="symbol9777"
         overflow="visible">
        <path
           id="path7526"
           d="M 0.953125 -2.296875 C 1 -2.296875 1.21875 -2.296875 1.21875 -2.5 C 1.21875 -2.6875 1 -2.6875 0.953125 -2.6875 L 0.953125 -4 C 0.953125 -4.15625 0.953125 -4.34375 0.75 -4.34375 C 0.546875 -4.34375 0.546875 -4.15625 0.546875 -4 L 0.546875 -0.984375 C 0.546875 -0.828125 0.546875 -0.640625 0.75 -0.640625 C 0.953125 -0.640625 0.953125 -0.828125 0.953125 -0.984375 Z M 0.953125 -2.296875 "
           style="stroke:none;" />
      </symbol>
      <symbol
         id="symbol237"
         overflow="visible">
        <path
           id="path3262"
           d="M 8.3125 -2.296875 C 7.765625 -1.875 7.5 -1.46875 7.421875 -1.328125 C 6.96875 -0.640625 6.890625 -0.015625 6.890625 -0.015625 C 6.890625 0.109375 7.015625 0.109375 7.09375 0.109375 C 7.25 0.109375 7.265625 0.09375 7.3125 -0.09375 C 7.53125 -1.0625 8.125 -1.90625 9.25 -2.359375 C 9.375 -2.40625 9.40625 -2.421875 9.40625 -2.5 C 9.40625 -2.5625 9.34375 -2.59375 9.328125 -2.609375 C 8.875 -2.765625 7.671875 -3.265625 7.296875 -4.9375 C 7.265625 -5.0625 7.25 -5.09375 7.09375 -5.09375 C 7.015625 -5.09375 6.890625 -5.09375 6.890625 -4.96875 C 6.890625 -4.953125 6.984375 -4.328125 7.390625 -3.65625 C 7.59375 -3.359375 7.890625 -3.015625 8.3125 -2.6875 L 0.90625 -2.6875 C 0.734375 -2.6875 0.546875 -2.6875 0.546875 -2.5 C 0.546875 -2.296875 0.734375 -2.296875 0.90625 -2.296875 Z M 8.3125 -2.296875 "
           style="stroke:none;" />
      </symbol>
    </g>
    <g
       id="g9107">
      <symbol
         id="symbol8453"
         overflow="visible">
        <path
           id="path2370"
           d=""
           style="stroke:none;" />
      </symbol>
      <symbol
         id="symbol8139"
         overflow="visible">
        <path
           id="path1185"
           d="M 0.953125 -2.296875 C 1 -2.296875 1.21875 -2.296875 1.21875 -2.5 C 1.21875 -2.6875 1 -2.6875 0.953125 -2.6875 L 0.953125 -4 C 0.953125 -4.15625 0.953125 -4.34375 0.75 -4.34375 C 0.546875 -4.34375 0.546875 -4.15625 0.546875 -4 L 0.546875 -0.984375 C 0.546875 -0.828125 0.546875 -0.640625 0.75 -0.640625 C 0.953125 -0.640625 0.953125 -0.828125 0.953125 -0.984375 Z M 0.953125 -2.296875 "
           style="stroke:none;" />
      </symbol>
      <symbol
         id="symbol7234"
         overflow="visible">
        <path
           id="path3784"
           d="M 6.5625 -2.296875 C 6.734375 -2.296875 6.921875 -2.296875 6.921875 -2.5 C 6.921875 -2.6875 6.734375 -2.6875 6.5625 -2.6875 L 1.171875 -2.6875 C 1 -2.6875 0.828125 -2.6875 0.828125 -2.5 C 0.828125 -2.296875 1 -2.296875 1.171875 -2.296875 Z M 6.5625 -2.296875 "
           style="stroke:none;" />
      </symbol>
      <symbol
         id="symbol8283"
         overflow="visible">
        <path
           id="path4217"
           d="M 8.3125 -2.296875 C 7.765625 -1.875 7.5 -1.46875 7.421875 -1.328125 C 6.96875 -0.640625 6.890625 -0.015625 6.890625 -0.015625 C 6.890625 0.109375 7.015625 0.109375 7.09375 0.109375 C 7.25 0.109375 7.265625 0.09375 7.3125 -0.09375 C 7.53125 -1.0625 8.125 -1.90625 9.25 -2.359375 C 9.375 -2.40625 9.40625 -2.421875 9.40625 -2.5 C 9.40625 -2.5625 9.34375 -2.59375 9.328125 -2.609375 C 8.875 -2.765625 7.671875 -3.265625 7.296875 -4.9375 C 7.265625 -5.0625 7.25 -5.09375 7.09375 -5.09375 C 7.015625 -5.09375 6.890625 -5.09375 6.890625 -4.96875 C 6.890625 -4.953125 6.984375 -4.328125 7.390625 -3.65625 C 7.59375 -3.359375 7.890625 -3.015625 8.3125 -2.6875 L 0.90625 -2.6875 C 0.734375 -2.6875 0.546875 -2.6875 0.546875 -2.5 C 0.546875 -2.296875 0.734375 -2.296875 0.90625 -2.296875 Z M 8.3125 -2.296875 "
           style="stroke:none;" />
      </symbol>
    </g>
    <g
       id="g581">
      <symbol
         id="symbol7304"
         overflow="visible">
        <path
           id="path3697"
           d=""
           style="stroke:none;" />
      </symbol>
      <symbol
         id="symbol7839"
         overflow="visible">
        <path
           id="path9887"
           d="M 4.671875 -3.703125 C 4.671875 -4.25 4.40625 -4.40625 4.234375 -4.40625 C 3.984375 -4.40625 3.734375 -4.140625 3.734375 -3.921875 C 3.734375 -3.796875 3.78125 -3.734375 3.890625 -3.625 C 4.109375 -3.421875 4.234375 -3.171875 4.234375 -2.8125 C 4.234375 -2.390625 3.625 -0.109375 2.46875 -0.109375 C 1.953125 -0.109375 1.71875 -0.453125 1.71875 -0.984375 C 1.71875 -1.53125 2 -2.265625 2.296875 -3.09375 C 2.375 -3.265625 2.421875 -3.40625 2.421875 -3.59375 C 2.421875 -4.03125 2.109375 -4.40625 1.609375 -4.40625 C 0.671875 -4.40625 0.296875 -2.953125 0.296875 -2.875 C 0.296875 -2.765625 0.390625 -2.765625 0.40625 -2.765625 C 0.515625 -2.765625 0.515625 -2.796875 0.5625 -2.953125 C 0.859375 -3.953125 1.28125 -4.1875 1.578125 -4.1875 C 1.65625 -4.1875 1.828125 -4.1875 1.828125 -3.875 C 1.828125 -3.625 1.71875 -3.34375 1.65625 -3.171875 C 1.21875 -2.015625 1.09375 -1.5625 1.09375 -1.125 C 1.09375 -0.046875 1.96875 0.109375 2.421875 0.109375 C 4.09375 0.109375 4.671875 -3.1875 4.671875 -3.703125 Z M 4.671875 -3.703125 "
           style="stroke:none;" />
      </symbol>
      <symbol
         id="symbol8599"
         overflow="visible">
        <path
           id="path3173"
           d=""
           style="stroke:none;" />
      </symbol>
      <symbol
         id="symbol2853"
         overflow="visible">
        <path
           id="path6949"
           d="M 2.328125 -4.4375 C 2.328125 -4.625 2.328125 -4.625 2.125 -4.625 C 1.671875 -4.1875 1.046875 -4.1875 0.765625 -4.1875 L 0.765625 -3.9375 C 0.921875 -3.9375 1.390625 -3.9375 1.765625 -4.125 L 1.765625 -0.578125 C 1.765625 -0.34375 1.765625 -0.25 1.078125 -0.25 L 0.8125 -0.25 L 0.8125 0 C 0.9375 0 1.796875 -0.03125 2.046875 -0.03125 C 2.265625 -0.03125 3.140625 0 3.296875 0 L 3.296875 -0.25 L 3.03125 -0.25 C 2.328125 -0.25 2.328125 -0.34375 2.328125 -0.578125 Z M 2.328125 -4.4375 "
           style="stroke:none;" />
      </symbol>
    </g>
    <g
       id="g3017">
      <symbol
         id="symbol4819"
         overflow="visible">
        <path
           id="path9149"
           d=""
           style="stroke:none;" />
      </symbol>
      <symbol
         id="symbol2787"
         overflow="visible">
        <path
           id="path5089"
           d="M 4.671875 -3.703125 C 4.671875 -4.25 4.40625 -4.40625 4.234375 -4.40625 C 3.984375 -4.40625 3.734375 -4.140625 3.734375 -3.921875 C 3.734375 -3.796875 3.78125 -3.734375 3.890625 -3.625 C 4.109375 -3.421875 4.234375 -3.171875 4.234375 -2.8125 C 4.234375 -2.390625 3.625 -0.109375 2.46875 -0.109375 C 1.953125 -0.109375 1.71875 -0.453125 1.71875 -0.984375 C 1.71875 -1.53125 2 -2.265625 2.296875 -3.09375 C 2.375 -3.265625 2.421875 -3.40625 2.421875 -3.59375 C 2.421875 -4.03125 2.109375 -4.40625 1.609375 -4.40625 C 0.671875 -4.40625 0.296875 -2.953125 0.296875 -2.875 C 0.296875 -2.765625 0.390625 -2.765625 0.40625 -2.765625 C 0.515625 -2.765625 0.515625 -2.796875 0.5625 -2.953125 C 0.859375 -3.953125 1.28125 -4.1875 1.578125 -4.1875 C 1.65625 -4.1875 1.828125 -4.1875 1.828125 -3.875 C 1.828125 -3.625 1.71875 -3.34375 1.65625 -3.171875 C 1.21875 -2.015625 1.09375 -1.5625 1.09375 -1.125 C 1.09375 -0.046875 1.96875 0.109375 2.421875 0.109375 C 4.09375 0.109375 4.671875 -3.1875 4.671875 -3.703125 Z M 4.671875 -3.703125 "
           style="stroke:none;" />
      </symbol>
      <symbol
         id="symbol4988"
         overflow="visible">
        <path
           id="path3863"
           d=""
           style="stroke:none;" />
      </symbol>
      <symbol
         id="symbol5022"
         overflow="visible">
        <path
           id="path4652"
           d="M 3.515625 -1.265625 L 3.28125 -1.265625 C 3.265625 -1.109375 3.1875 -0.703125 3.09375 -0.640625 C 3.046875 -0.59375 2.515625 -0.59375 2.40625 -0.59375 L 1.125 -0.59375 C 1.859375 -1.234375 2.109375 -1.4375 2.515625 -1.765625 C 3.03125 -2.171875 3.515625 -2.609375 3.515625 -3.265625 C 3.515625 -4.109375 2.78125 -4.625 1.890625 -4.625 C 1.03125 -4.625 0.4375 -4.015625 0.4375 -3.375 C 0.4375 -3.03125 0.734375 -2.984375 0.8125 -2.984375 C 0.96875 -2.984375 1.171875 -3.109375 1.171875 -3.359375 C 1.171875 -3.484375 1.125 -3.734375 0.765625 -3.734375 C 0.984375 -4.21875 1.453125 -4.375 1.78125 -4.375 C 2.484375 -4.375 2.84375 -3.828125 2.84375 -3.265625 C 2.84375 -2.65625 2.40625 -2.1875 2.1875 -1.9375 L 0.515625 -0.265625 C 0.4375 -0.203125 0.4375 -0.1875 0.4375 0 L 3.3125 0 Z M 3.515625 -1.265625 "
           style="stroke:none;" />
      </symbol>
    </g>
    <g
       id="g1237">
      <symbol
         id="symbol2601"
         overflow="visible">
        <path
           id="path8876"
           d=""
           style="stroke:none;" />
      </symbol>
      <symbol
         id="symbol7054"
         overflow="visible">
        <path
           id="path7613"
           d="M 4.671875 -3.703125 C 4.671875 -4.25 4.40625 -4.40625 4.234375 -4.40625 C 3.984375 -4.40625 3.734375 -4.140625 3.734375 -3.921875 C 3.734375 -3.796875 3.78125 -3.734375 3.890625 -3.625 C 4.109375 -3.421875 4.234375 -3.171875 4.234375 -2.8125 C 4.234375 -2.390625 3.625 -0.109375 2.46875 -0.109375 C 1.953125 -0.109375 1.71875 -0.453125 1.71875 -0.984375 C 1.71875 -1.53125 2 -2.265625 2.296875 -3.09375 C 2.375 -3.265625 2.421875 -3.40625 2.421875 -3.59375 C 2.421875 -4.03125 2.109375 -4.40625 1.609375 -4.40625 C 0.671875 -4.40625 0.296875 -2.953125 0.296875 -2.875 C 0.296875 -2.765625 0.390625 -2.765625 0.40625 -2.765625 C 0.515625 -2.765625 0.515625 -2.796875 0.5625 -2.953125 C 0.859375 -3.953125 1.28125 -4.1875 1.578125 -4.1875 C 1.65625 -4.1875 1.828125 -4.1875 1.828125 -3.875 C 1.828125 -3.625 1.71875 -3.34375 1.65625 -3.171875 C 1.21875 -2.015625 1.09375 -1.5625 1.09375 -1.125 C 1.09375 -0.046875 1.96875 0.109375 2.421875 0.109375 C 4.09375 0.109375 4.671875 -3.1875 4.671875 -3.703125 Z M 4.671875 -3.703125 "
           style="stroke:none;" />
      </symbol>
      <symbol
         id="symbol4748"
         overflow="visible">
        <path
           id="path8637"
           d=""
           style="stroke:none;" />
      </symbol>
      <symbol
         id="symbol5666"
         overflow="visible">
        <path
           id="path4354"
           d="M 1.90625 -2.328125 C 2.453125 -2.328125 2.84375 -1.953125 2.84375 -1.203125 C 2.84375 -0.34375 2.328125 -0.078125 1.9375 -0.078125 C 1.65625 -0.078125 1.03125 -0.15625 0.75 -0.578125 C 1.078125 -0.578125 1.15625 -0.8125 1.15625 -0.96875 C 1.15625 -1.1875 0.984375 -1.34375 0.765625 -1.34375 C 0.578125 -1.34375 0.375 -1.21875 0.375 -0.9375 C 0.375 -0.28125 1.09375 0.140625 1.9375 0.140625 C 2.90625 0.140625 3.578125 -0.515625 3.578125 -1.203125 C 3.578125 -1.75 3.140625 -2.296875 2.375 -2.453125 C 3.09375 -2.71875 3.359375 -3.234375 3.359375 -3.671875 C 3.359375 -4.21875 2.734375 -4.625 1.953125 -4.625 C 1.1875 -4.625 0.59375 -4.25 0.59375 -3.6875 C 0.59375 -3.453125 0.75 -3.328125 0.953125 -3.328125 C 1.171875 -3.328125 1.3125 -3.484375 1.3125 -3.671875 C 1.3125 -3.875 1.171875 -4.03125 0.953125 -4.046875 C 1.203125 -4.34375 1.671875 -4.421875 1.9375 -4.421875 C 2.25 -4.421875 2.6875 -4.265625 2.6875 -3.671875 C 2.6875 -3.375 2.59375 -3.046875 2.40625 -2.84375 C 2.1875 -2.578125 1.984375 -2.5625 1.640625 -2.53125 C 1.46875 -2.515625 1.453125 -2.515625 1.421875 -2.515625 C 1.40625 -2.515625 1.34375 -2.5 1.34375 -2.421875 C 1.34375 -2.328125 1.40625 -2.328125 1.53125 -2.328125 Z M 1.90625 -2.328125 "
           style="stroke:none;" />
      </symbol>
    </g>
    <g
       id="g7951">
      <symbol
         id="symbol6218"
         overflow="visible">
        <path
           id="path3203"
           d=""
           style="stroke:none;" />
      </symbol>
      <symbol
         id="symbol3509"
         overflow="visible">
        <path
           id="path7564"
           d="M 4.609375 -3.375 C 4.65625 -3.59375 4.75 -3.96875 4.75 -4.03125 C 4.75 -4.203125 4.609375 -4.296875 4.46875 -4.296875 C 4.34375 -4.296875 4.171875 -4.21875 4.09375 -4.015625 C 4.0625 -3.953125 3.59375 -2.046875 3.53125 -1.78125 C 3.453125 -1.484375 3.4375 -1.3125 3.4375 -1.125 C 3.4375 -1.015625 3.4375 -1 3.453125 -0.953125 C 3.21875 -0.421875 2.921875 -0.109375 2.53125 -0.109375 C 1.734375 -0.109375 1.734375 -0.84375 1.734375 -1.015625 C 1.734375 -1.328125 1.78125 -1.71875 2.25 -2.953125 C 2.359375 -3.25 2.421875 -3.390625 2.421875 -3.59375 C 2.421875 -4.03125 2.09375 -4.40625 1.609375 -4.40625 C 0.65625 -4.40625 0.296875 -2.953125 0.296875 -2.875 C 0.296875 -2.765625 0.390625 -2.765625 0.40625 -2.765625 C 0.515625 -2.765625 0.515625 -2.796875 0.5625 -2.953125 C 0.84375 -3.875 1.21875 -4.1875 1.578125 -4.1875 C 1.671875 -4.1875 1.828125 -4.171875 1.828125 -3.859375 C 1.828125 -3.609375 1.71875 -3.328125 1.640625 -3.15625 C 1.203125 -1.984375 1.09375 -1.53125 1.09375 -1.140625 C 1.09375 -0.234375 1.75 0.109375 2.5 0.109375 C 2.671875 0.109375 3.140625 0.109375 3.53125 -0.59375 C 3.796875 0.046875 4.484375 0.109375 4.78125 0.109375 C 5.53125 0.109375 5.96875 -0.515625 6.234375 -1.109375 C 6.5625 -1.890625 6.890625 -3.234375 6.890625 -3.703125 C 6.890625 -4.25 6.625 -4.40625 6.453125 -4.40625 C 6.203125 -4.40625 5.953125 -4.140625 5.953125 -3.921875 C 5.953125 -3.796875 6.015625 -3.734375 6.09375 -3.65625 C 6.203125 -3.546875 6.453125 -3.296875 6.453125 -2.8125 C 6.453125 -2.46875 6.171875 -1.5 5.90625 -0.984375 C 5.65625 -0.453125 5.296875 -0.109375 4.8125 -0.109375 C 4.34375 -0.109375 4.078125 -0.40625 4.078125 -0.984375 C 4.078125 -1.25 4.140625 -1.5625 4.1875 -1.703125 Z M 4.609375 -3.375 "
           style="stroke:none;" />
      </symbol>
      <symbol
         id="symbol7612"
         overflow="visible">
        <path
           id="path4806"
           d=""
           style="stroke:none;" />
      </symbol>
      <symbol
         id="symbol6643"
         overflow="visible">
        <path
           id="path5520"
           d="M 2.328125 -4.4375 C 2.328125 -4.625 2.328125 -4.625 2.125 -4.625 C 1.671875 -4.1875 1.046875 -4.1875 0.765625 -4.1875 L 0.765625 -3.9375 C 0.921875 -3.9375 1.390625 -3.9375 1.765625 -4.125 L 1.765625 -0.578125 C 1.765625 -0.34375 1.765625 -0.25 1.078125 -0.25 L 0.8125 -0.25 L 0.8125 0 C 0.9375 0 1.796875 -0.03125 2.046875 -0.03125 C 2.265625 -0.03125 3.140625 0 3.296875 0 L 3.296875 -0.25 L 3.03125 -0.25 C 2.328125 -0.25 2.328125 -0.34375 2.328125 -0.578125 Z M 2.328125 -4.4375 "
           style="stroke:none;" />
      </symbol>
    </g>
    <g
       id="g5769">
      <symbol
         id="symbol6732"
         overflow="visible">
        <path
           id="path3232"
           d=""
           style="stroke:none;" />
      </symbol>
      <symbol
         id="symbol1680"
         overflow="visible">
        <path
           id="path9280"
           d="M 4.609375 -3.375 C 4.65625 -3.59375 4.75 -3.96875 4.75 -4.03125 C 4.75 -4.203125 4.609375 -4.296875 4.46875 -4.296875 C 4.34375 -4.296875 4.171875 -4.21875 4.09375 -4.015625 C 4.0625 -3.953125 3.59375 -2.046875 3.53125 -1.78125 C 3.453125 -1.484375 3.4375 -1.3125 3.4375 -1.125 C 3.4375 -1.015625 3.4375 -1 3.453125 -0.953125 C 3.21875 -0.421875 2.921875 -0.109375 2.53125 -0.109375 C 1.734375 -0.109375 1.734375 -0.84375 1.734375 -1.015625 C 1.734375 -1.328125 1.78125 -1.71875 2.25 -2.953125 C 2.359375 -3.25 2.421875 -3.390625 2.421875 -3.59375 C 2.421875 -4.03125 2.09375 -4.40625 1.609375 -4.40625 C 0.65625 -4.40625 0.296875 -2.953125 0.296875 -2.875 C 0.296875 -2.765625 0.390625 -2.765625 0.40625 -2.765625 C 0.515625 -2.765625 0.515625 -2.796875 0.5625 -2.953125 C 0.84375 -3.875 1.21875 -4.1875 1.578125 -4.1875 C 1.671875 -4.1875 1.828125 -4.171875 1.828125 -3.859375 C 1.828125 -3.609375 1.71875 -3.328125 1.640625 -3.15625 C 1.203125 -1.984375 1.09375 -1.53125 1.09375 -1.140625 C 1.09375 -0.234375 1.75 0.109375 2.5 0.109375 C 2.671875 0.109375 3.140625 0.109375 3.53125 -0.59375 C 3.796875 0.046875 4.484375 0.109375 4.78125 0.109375 C 5.53125 0.109375 5.96875 -0.515625 6.234375 -1.109375 C 6.5625 -1.890625 6.890625 -3.234375 6.890625 -3.703125 C 6.890625 -4.25 6.625 -4.40625 6.453125 -4.40625 C 6.203125 -4.40625 5.953125 -4.140625 5.953125 -3.921875 C 5.953125 -3.796875 6.015625 -3.734375 6.09375 -3.65625 C 6.203125 -3.546875 6.453125 -3.296875 6.453125 -2.8125 C 6.453125 -2.46875 6.171875 -1.5 5.90625 -0.984375 C 5.65625 -0.453125 5.296875 -0.109375 4.8125 -0.109375 C 4.34375 -0.109375 4.078125 -0.40625 4.078125 -0.984375 C 4.078125 -1.25 4.140625 -1.5625 4.1875 -1.703125 Z M 4.609375 -3.375 "
           style="stroke:none;" />
      </symbol>
      <symbol
         id="symbol5527"
         overflow="visible">
        <path
           id="path5980"
           d=""
           style="stroke:none;" />
      </symbol>
      <symbol
         id="symbol8734"
         overflow="visible">
        <path
           id="path7538"
           d="M 3.515625 -1.265625 L 3.28125 -1.265625 C 3.265625 -1.109375 3.1875 -0.703125 3.09375 -0.640625 C 3.046875 -0.59375 2.515625 -0.59375 2.40625 -0.59375 L 1.125 -0.59375 C 1.859375 -1.234375 2.109375 -1.4375 2.515625 -1.765625 C 3.03125 -2.171875 3.515625 -2.609375 3.515625 -3.265625 C 3.515625 -4.109375 2.78125 -4.625 1.890625 -4.625 C 1.03125 -4.625 0.4375 -4.015625 0.4375 -3.375 C 0.4375 -3.03125 0.734375 -2.984375 0.8125 -2.984375 C 0.96875 -2.984375 1.171875 -3.109375 1.171875 -3.359375 C 1.171875 -3.484375 1.125 -3.734375 0.765625 -3.734375 C 0.984375 -4.21875 1.453125 -4.375 1.78125 -4.375 C 2.484375 -4.375 2.84375 -3.828125 2.84375 -3.265625 C 2.84375 -2.65625 2.40625 -2.1875 2.1875 -1.9375 L 0.515625 -0.265625 C 0.4375 -0.203125 0.4375 -0.1875 0.4375 0 L 3.3125 0 Z M 3.515625 -1.265625 "
           style="stroke:none;" />
      </symbol>
    </g>
    <g
       id="g2442">
      <symbol
         id="symbol7826"
         overflow="visible">
        <path
           id="path4968"
           d=""
           style="stroke:none;" />
      </symbol>
      <symbol
         id="symbol2362"
         overflow="visible">
        <path
           id="path3109"
           d="M 4.609375 -3.375 C 4.65625 -3.59375 4.75 -3.96875 4.75 -4.03125 C 4.75 -4.203125 4.609375 -4.296875 4.46875 -4.296875 C 4.34375 -4.296875 4.171875 -4.21875 4.09375 -4.015625 C 4.0625 -3.953125 3.59375 -2.046875 3.53125 -1.78125 C 3.453125 -1.484375 3.4375 -1.3125 3.4375 -1.125 C 3.4375 -1.015625 3.4375 -1 3.453125 -0.953125 C 3.21875 -0.421875 2.921875 -0.109375 2.53125 -0.109375 C 1.734375 -0.109375 1.734375 -0.84375 1.734375 -1.015625 C 1.734375 -1.328125 1.78125 -1.71875 2.25 -2.953125 C 2.359375 -3.25 2.421875 -3.390625 2.421875 -3.59375 C 2.421875 -4.03125 2.09375 -4.40625 1.609375 -4.40625 C 0.65625 -4.40625 0.296875 -2.953125 0.296875 -2.875 C 0.296875 -2.765625 0.390625 -2.765625 0.40625 -2.765625 C 0.515625 -2.765625 0.515625 -2.796875 0.5625 -2.953125 C 0.84375 -3.875 1.21875 -4.1875 1.578125 -4.1875 C 1.671875 -4.1875 1.828125 -4.171875 1.828125 -3.859375 C 1.828125 -3.609375 1.71875 -3.328125 1.640625 -3.15625 C 1.203125 -1.984375 1.09375 -1.53125 1.09375 -1.140625 C 1.09375 -0.234375 1.75 0.109375 2.5 0.109375 C 2.671875 0.109375 3.140625 0.109375 3.53125 -0.59375 C 3.796875 0.046875 4.484375 0.109375 4.78125 0.109375 C 5.53125 0.109375 5.96875 -0.515625 6.234375 -1.109375 C 6.5625 -1.890625 6.890625 -3.234375 6.890625 -3.703125 C 6.890625 -4.25 6.625 -4.40625 6.453125 -4.40625 C 6.203125 -4.40625 5.953125 -4.140625 5.953125 -3.921875 C 5.953125 -3.796875 6.015625 -3.734375 6.09375 -3.65625 C 6.203125 -3.546875 6.453125 -3.296875 6.453125 -2.8125 C 6.453125 -2.46875 6.171875 -1.5 5.90625 -0.984375 C 5.65625 -0.453125 5.296875 -0.109375 4.8125 -0.109375 C 4.34375 -0.109375 4.078125 -0.40625 4.078125 -0.984375 C 4.078125 -1.25 4.140625 -1.5625 4.1875 -1.703125 Z M 4.609375 -3.375 "
           style="stroke:none;" />
      </symbol>
      <symbol
         id="symbol9764"
         overflow="visible">
        <path
           id="path7709"
           d=""
           style="stroke:none;" />
      </symbol>
      <symbol
         id="symbol8706"
         overflow="visible">
        <path
           id="path6750"
           d="M 1.90625 -2.328125 C 2.453125 -2.328125 2.84375 -1.953125 2.84375 -1.203125 C 2.84375 -0.34375 2.328125 -0.078125 1.9375 -0.078125 C 1.65625 -0.078125 1.03125 -0.15625 0.75 -0.578125 C 1.078125 -0.578125 1.15625 -0.8125 1.15625 -0.96875 C 1.15625 -1.1875 0.984375 -1.34375 0.765625 -1.34375 C 0.578125 -1.34375 0.375 -1.21875 0.375 -0.9375 C 0.375 -0.28125 1.09375 0.140625 1.9375 0.140625 C 2.90625 0.140625 3.578125 -0.515625 3.578125 -1.203125 C 3.578125 -1.75 3.140625 -2.296875 2.375 -2.453125 C 3.09375 -2.71875 3.359375 -3.234375 3.359375 -3.671875 C 3.359375 -4.21875 2.734375 -4.625 1.953125 -4.625 C 1.1875 -4.625 0.59375 -4.25 0.59375 -3.6875 C 0.59375 -3.453125 0.75 -3.328125 0.953125 -3.328125 C 1.171875 -3.328125 1.3125 -3.484375 1.3125 -3.671875 C 1.3125 -3.875 1.171875 -4.03125 0.953125 -4.046875 C 1.203125 -4.34375 1.671875 -4.421875 1.9375 -4.421875 C 2.25 -4.421875 2.6875 -4.265625 2.6875 -3.671875 C 2.6875 -3.375 2.59375 -3.046875 2.40625 -2.84375 C 2.1875 -2.578125 1.984375 -2.5625 1.640625 -2.53125 C 1.46875 -2.515625 1.453125 -2.515625 1.421875 -2.515625 C 1.40625 -2.515625 1.34375 -2.5 1.34375 -2.421875 C 1.34375 -2.328125 1.40625 -2.328125 1.53125 -2.328125 Z M 1.90625 -2.328125 "
           style="stroke:none;" />
      </symbol>
    </g>
  </defs>
  <sodipodi:namedview
     inkscape:window-maximized="1"
     inkscape:window-y="-8"
     inkscape:window-x="-8"
     inkscape:window-height="1017"
     inkscape:window-width="1920"
     showgrid="false"
     inkscape:document-rotation="0"
     inkscape:current-layer="layer1"
     inkscape:document-units="mm"
     inkscape:cy="320.43849"
     inkscape:cx="159.3105"
     inkscape:zoom="2.8284271"
     inkscape:pageshadow="2"
     inkscape:pageopacity="0.0"
     borderopacity="1.0"
     bordercolor="#666666"
     pagecolor="#ffffff"
     id="base" />
  <metadata
     id="metadata5">
    <rdf:RDF>
      <cc:Work
         rdf:about="">
        <dc:format>image/svg+xml</dc:format>
        <dc:type
           rdf:resource="http://purl.org/dc/dcmitype/StillImage" />
        <dc:title></dc:title>
      </cc:Work>
    </rdf:RDF>
  </metadata>
  <g
     id="layer1"
     inkscape:groupmode="layer"
     inkscape:label="Capa 1">
    <path
       sodipodi:nodetypes="cc"
       id="path841"
       d="M 25.907876,78.66715 45.901357,78.63743"
       style="fill:none;stroke:#000000;stroke-width:0.2;stroke-linecap:butt;stroke-linejoin:miter;stroke-miterlimit:4;stroke-dasharray:none;stroke-opacity:1" />
    <path
       sodipodi:nodetypes="ccc"
       id="path843"
       d="m 45.821599,78.60531 -9.852902,-3.479316 -9.895763,3.418041"
       style="fill:none;stroke:#000000;stroke-width:0.2;stroke-linecap:butt;stroke-linejoin:miter;stroke-miterlimit:4;stroke-dasharray:0.6, 0.6;stroke-dashoffset:0;stroke-opacity:1" />
    <path
       id="path845"
       d="M 25.907876,78.66715 25.916176,59.487"
       style="fill:none;stroke:#000000;stroke-width:0.2;stroke-linecap:butt;stroke-linejoin:miter;stroke-miterlimit:4;stroke-dasharray:none;stroke-opacity:1" />
    <path
       sodipodi:nodetypes="cc"
       style="fill:none;stroke:#000000;stroke-width:0.2;stroke-linecap:butt;stroke-linejoin:miter;stroke-miterlimit:4;stroke-dasharray:none;stroke-opacity:1"
       d="m 45.901357,78.637426 0.0083,-19.18015"
       id="path849" />
    <path
       style="fill:none;stroke:#000000;stroke-width:0.2;stroke-linecap:butt;stroke-linejoin:miter;stroke-miterlimit:4;stroke-dasharray:none;stroke-opacity:1"
       d="m 25.916153,59.487 19.99348,-0.02972"
       id="path851" />
    <path
       style="fill:none;stroke:#000000;stroke-width:0.2;stroke-linecap:butt;stroke-linejoin:miter;stroke-miterlimit:4;stroke-dasharray:none;stroke-dashoffset:0;stroke-opacity:1"
       d="M 45.909633,59.457276 35.811916,56.068961 25.916153,59.487"
       id="path853" />
    <path
       style="fill:none;stroke:#000000;stroke-width:0.2;stroke-linecap:butt;stroke-linejoin:miter;stroke-miterlimit:4;stroke-dasharray:0.6, 0.6;stroke-dashoffset:0;stroke-opacity:1"
       d="m 35.968697,75.125994 0.0083,-19.180148"
       id="path855" />
    <path
       sodipodi:nodetypes="ccsscc"
       id="path875"
       d="m 110.64352,73.885281 c -0.0286,-1.233941 -1.59369,-2.21768 -5.52717,-2.337324 -2.07303,0 -4.10513,0.569596 -6.14095,0.930842 -2.76563,0.490745 -3.41357,0.62791 -7.077705,0.827416 -2.037691,0.110949 -4.145899,-0.266552 -6.140939,-0.620561 -10.004677,-1.341495 -15.83469,-0.03811 -15.901679,2.176586"
       style="fill:none;stroke:#000000;stroke-width:0.2;stroke-linecap:butt;stroke-linejoin:miter;stroke-miterlimit:4;stroke-dasharray:0.6, 0.6;stroke-dashoffset:0;stroke-opacity:1" />
    <path
       style="fill:none;stroke:#000000;stroke-width:0.2;stroke-linecap:butt;stroke-linejoin:miter;stroke-opacity:1;stroke-miterlimit:4;stroke-dasharray:none;stroke-dashoffset:0"
       d="m 69.903637,74.510553 c -0.04665,1.630866 3.030397,3.755355 9.864897,5.68178 2.642611,0.571642 2.800719,0.536966 5.724598,0 1.719795,-0.480642 3.50817,-1.090626 5.308257,-1.137698 3.52881,0.192062 6.576943,0.135641 9.783891,0 5.11443,-0.198869 10.15772,-3.275178 10.10688,-5.522312"
       id="path885"
       sodipodi:nodetypes="cccccc" />
    <path
       id="path887"
       d="m 69.903699,74.508466 0.0065,-14.844534"
       style="fill:none;stroke:#000000;stroke-width:0.2;stroke-linecap:butt;stroke-linejoin:miter;stroke-miterlimit:4;stroke-dasharray:none;stroke-opacity:1;stroke-dashoffset:0" />
    <path
       style="fill:none;stroke:#000000;stroke-width:0.2;stroke-linecap:butt;stroke-linejoin:miter;stroke-miterlimit:4;stroke-dasharray:none;stroke-opacity:1;stroke-dashoffset:0"
       d="m 110.69216,73.532323 0.006,-14.844534"
       id="path889" />
    <path
       style="fill:none;stroke:#000000;stroke-width:0.2;stroke-linecap:butt;stroke-linejoin:miter;stroke-miterlimit:4;stroke-dasharray:none;stroke-dashoffset:0;stroke-opacity:1"
       d="m 110.69861,58.686973 c -0.0286,-1.233941 -1.5937,-2.21768 -5.52717,-2.337324 -2.07303,0 -4.10513,0.569596 -6.140948,0.930842 -2.76564,0.490745 -3.41358,0.62791 -7.077708,0.827415 -2.037693,0.11095 -4.145902,-0.266551 -6.140941,-0.62056 -10.004678,-1.341495 -15.834691,-0.03811 -15.90168,2.176586"
       id="path891"
       sodipodi:nodetypes="ccsscc" />
    <path
       sodipodi:nodetypes="cccccc"
       id="path893"
       d="m 69.902821,60.019793 c -0.04665,1.630866 2.989056,3.755355 9.823556,5.68178 2.642611,0.571642 2.800719,0.536965 5.724598,0 1.719795,-0.480642 3.508169,-1.090626 5.308257,-1.137698 3.528812,0.192062 6.576938,0.135641 9.783888,0 5.11444,-0.198869 10.20733,-3.275179 10.15649,-5.522312"
       style="fill:none;stroke:#000000;stroke-width:0.2;stroke-linecap:butt;stroke-linejoin:miter;stroke-miterlimit:4;stroke-dasharray:none;stroke-dashoffset:0;stroke-opacity:1" />
    <path
       sodipodi:nodetypes="ccc"
       id="path899"
       d="m 85.631594,77.286389 c -0.880522,-0.89829 -1.879918,-2.055212 -2.641132,-2.923109 -2.642674,0.240614 -3.513855,0.746084 -5.519047,2.018122"
       style="fill:none;stroke:#000000;stroke-width:0.2;stroke-linecap:butt;stroke-linejoin:miter;stroke-miterlimit:4;stroke-dasharray:0.6, 0.6;stroke-dashoffset:0;stroke-opacity:1" />
    <path
       style="fill:none;stroke:#000000;stroke-width:0.2;stroke-linecap:butt;stroke-linejoin:miter;stroke-miterlimit:4;stroke-dasharray:none;stroke-dashoffset:0;stroke-opacity:1"
       d="m 77.471415,76.381402 c 3.53317,1.249265 5.663685,0.914125 8.160179,0.904987"
       id="path901"
       sodipodi:nodetypes="cc" />
    <path
       id="path903"
       d="m 77.471415,76.381402 0.0065,-14.844534"
       style="fill:none;stroke:#000000;stroke-width:0.2;stroke-linecap:butt;stroke-linejoin:miter;stroke-miterlimit:4;stroke-dasharray:none;stroke-dashoffset:0;stroke-opacity:1" />
    <path
       style="fill:none;stroke:#000000;stroke-width:0.2;stroke-linecap:butt;stroke-linejoin:miter;stroke-miterlimit:4;stroke-dasharray:none;stroke-dashoffset:0;stroke-opacity:1"
       d="m 85.631594,77.286389 0.0065,-14.844534"
       id="path905" />
    <path
       style="fill:none;stroke:#000000;stroke-width:0.2;stroke-linecap:butt;stroke-linejoin:miter;stroke-miterlimit:4;stroke-dasharray:none;stroke-dashoffset:0;stroke-opacity:1"
       d="m 85.638059,62.441855 c -0.880523,-0.89829 -1.879918,-2.055212 -2.641132,-2.92311 -2.642674,0.240615 -3.513856,0.746085 -5.519047,2.018123"
       id="path907"
       sodipodi:nodetypes="ccc" />
    <path
       sodipodi:nodetypes="cc"
       id="path909"
       d="m 77.47788,61.536868 c 3.53317,1.249265 5.663684,0.914125 8.160179,0.904987"
       style="fill:none;stroke:#000000;stroke-width:0.2;stroke-linecap:butt;stroke-linejoin:miter;stroke-miterlimit:4;stroke-dasharray:none;stroke-dashoffset:0;stroke-opacity:1" />
    <path
       id="path911"
       d="m 82.990462,74.36328 0.0065,-14.844533"
       style="fill:none;stroke:#000000;stroke-width:0.2;stroke-linecap:butt;stroke-linejoin:miter;stroke-miterlimit:4;stroke-dasharray:0.6, 0.6;stroke-dashoffset:0;stroke-opacity:1" />
    <path
       sodipodi:nodetypes="cccccsscc"
       transform="scale(0.26458333)"
       id="path921"
       d="m 98.10143,261.06516 -0.150527,-36.2324 c 25.068087,0.54489 53.295747,0.25395 75.565827,-0.11233 l -0.47336,36.05791 0.14063,36.3126 -8.70313,-0.0381 c -4.64146,-0.0203 -21.27812,-0.19414 -37.125,-0.19392 l -29.436337,0.46572 z"
       style="fill:#000000;fill-opacity:0.10040161;stroke:none;stroke-width:0;stroke-miterlimit:4;stroke-dasharray:none;stroke-dashoffset:0" />
    <path
       sodipodi:nodetypes="csscccc"
       transform="scale(0.26458333)"
       id="path923"
       d="m 100.14237,224.27338 c 6.15544,-2.20214 34.9463,-11.97653 35.22127,-11.97653 0.1949,0 8.29252,2.41712 17.67949,5.64553 l 18.65082,6.41448 c -13.59933,0.49269 -26.80622,0.4261 -37.81225,0.4217 -3.80798,-0.31145 -39.766792,0.59652 -33.73933,-0.5052 z"
       style="fill:#000000;fill-opacity:0.100402;stroke:none;stroke-width:0.37795276;stroke-miterlimit:4;stroke-dasharray:none;stroke-dashoffset:0" />
    <path
       id="path931"
       d="m 25.907876,78.667143 10.06082,-3.541151 9.932659,3.511436 -19.828421,-0.0934"
       style="fill:none;stroke:none;stroke-width:0.265;stroke-linecap:butt;stroke-linejoin:miter;stroke-opacity:1;stroke-miterlimit:4;stroke-dasharray:none" />
    <path
       sodipodi:nodetypes="cssscccsssssssscssscscc"
       id="path933"
       d="m 81.472021,80.5025 c -1.125233,-0.207793 -2.111848,-0.400085 -3.617645,-0.889839 -3.543001,-1.152345 -6.048909,-2.449126 -7.189608,-3.63288 -0.240191,-0.249259 -0.509222,-0.587108 -0.548542,-0.768392 l -0.164441,-0.455515 -0.0098,-7.614573 -0.01066,-7.734927 0.100574,-0.270888 c 0.483206,-1.301459 3.074455,-1.949868 6.871189,-2.147578 2.686053,-0.139872 6.623532,0.141586 9.879145,0.686628 2.795024,0.467931 4.06019,0.652288 6.546437,0.481981 2.46421,-0.168802 3.74714,-0.472184 7.35872,-1.180666 2.86147,-0.561332 3.85703,-0.686457 5.24205,-0.580734 2.11317,0.161306 3.60755,0.555826 4.33463,1.226023 0.53456,0.492744 0.44334,-0.0097 0.40935,8.644435 l -0.0299,7.619706 -0.24826,0.573686 c -0.77807,1.798018 -4.38905,3.791209 -7.75388,4.358989 -1.40744,0.237487 -2.18652,0.298376 -7.59705,0.289219 l -5.270994,-0.0089 -0.913638,0.197369 c -0.454078,0.09809 -1.440032,0.317767 -2.149446,0.518194 -1.817238,0.386797 -3.543096,0.981596 -5.238208,0.688687 z"
       style="fill:#000000;fill-opacity:0.100402;stroke:none;stroke-width:0.0662501;stroke-miterlimit:4;stroke-dasharray:none;stroke-dashoffset:0" />
    <g
       inkscape:label=""
       transform="translate(-247.78968,-23.339137)"
       id="g1038">
      <g
         id="g456">
        <g
           id="g5839"
           style="fill:#000000;fill-opacity:1">
          <use
             height="100%"
             width="100%"
             id="use3947"
             y="93.917999"
             x="297.974"
             xlink:href="#symbol8139" />
          <use
             height="100%"
             width="100%"
             id="use3686"
             y="93.917999"
             x="297.974"
             xlink:href="#symbol7234" />
        </g>
        <g
           id="g8911"
           style="fill:#000000;fill-opacity:1">
          <use
             height="100%"
             width="100%"
             id="use2438"
             y="93.917999"
             x="304.05914"
             xlink:href="#symbol8283" />
        </g>
      </g>
    </g>
    <g
       inkscape:label=""
       transform="matrix(0.56190025,0,0,0.55406026,-149.82402,28.940429)"
       id="g1122">
      <g
         id="g7360">
        <g
           id="g7275"
           style="fill:#000000;fill-opacity:1">
          <use
             height="100%"
             width="100%"
             id="use6064"
             y="93.917999"
             x="301.35101"
             xlink:href="#symbol7839" />
        </g>
        <g
           id="g6791"
           style="fill:#000000;fill-opacity:1">
          <use
             height="100%"
             width="100%"
             id="use8925"
             y="95.412003"
             x="306.17999"
             xlink:href="#symbol2853" />
        </g>
      </g>
    </g>
    <g
       inkscape:label=""
       transform="matrix(0.56190025,0,0,0.55406026,-122.40934,28.698694)"
       id="g1220">
      <g
         id="g5320">
        <g
           id="g8554"
           style="fill:#000000;fill-opacity:1">
          <use
             height="100%"
             width="100%"
             id="use7245"
             y="93.917999"
             x="301.35101"
             xlink:href="#symbol2787" />
        </g>
        <g
           id="g1177"
           style="fill:#000000;fill-opacity:1">
          <use
             height="100%"
             width="100%"
             id="use1034"
             y="95.412003"
             x="306.17999"
             xlink:href="#symbol5022" />
        </g>
      </g>
    </g>
    <g
       inkscape:label=""
       transform="matrix(0.56190025,0,0,0.55406026,-133.23705,22.896052)"
       id="g1333">
      <g
         id="g2564">
        <g
           id="g2914"
           style="fill:#000000;fill-opacity:1">
          <use
             height="100%"
             width="100%"
             id="use7206"
             y="93.917999"
             x="301.35101"
             xlink:href="#symbol7054" />
        </g>
        <g
           id="g3515"
           style="fill:#000000;fill-opacity:1">
          <use
             height="100%"
             width="100%"
             id="use1871"
             y="95.412003"
             x="306.17999"
             xlink:href="#symbol5666" />
        </g>
      </g>
    </g>
    <g
       inkscape:label=""
       transform="matrix(0.56190025,0,0,0.55406026,-150.45922,7.8208143)"
       id="g1461">
      <g
         id="g2909">
        <g
           id="g4550"
           style="fill:#000000;fill-opacity:1">
          <use
             height="100%"
             width="100%"
             id="use23"
             y="93.917999"
             x="300.19901"
             xlink:href="#symbol3509" />
        </g>
        <g
           id="g7097"
           style="fill:#000000;fill-opacity:1">
          <use
             height="100%"
             width="100%"
             id="use6462"
             y="95.412003"
             x="307.332"
             xlink:href="#symbol6643" />
        </g>
      </g>
    </g>
    <g
       inkscape:label=""
       transform="matrix(0.56190025,0,0,0.55406026,-122.62404,6.2950797)"
       id="g1604">
      <g
         id="g4623">
        <g
           id="g7022"
           style="fill:#000000;fill-opacity:1">
          <use
             height="100%"
             width="100%"
             id="use9141"
             y="93.917999"
             x="300.19901"
             xlink:href="#symbol1680" />
        </g>
        <g
           id="g6452"
           style="fill:#000000;fill-opacity:1">
          <use
             height="100%"
             width="100%"
             id="use6780"
             y="95.412003"
             x="307.332"
             xlink:href="#symbol8734" />
        </g>
      </g>
    </g>
    <g
       inkscape:label=""
       transform="matrix(0.56190025,0,0,0.55406026,-135.75773,2.7333288)"
       id="g1762">
      <g
         id="g9800">
        <g
           id="g3520"
           style="fill:#000000;fill-opacity:1">
          <use
             height="100%"
             width="100%"
             id="use5189"
             y="93.917999"
             x="300.19901"
             xlink:href="#symbol2362" />
        </g>
        <g
           id="g6395"
           style="fill:#000000;fill-opacity:1">
          <use
             height="100%"
             width="100%"
             id="use2287"
             y="95.412003"
             x="307.332"
             xlink:href="#symbol8706" />
        </g>
      </g>
    </g>
    <path
       id="path1781"
       d="m 25.916176,59.487 10.05252,15.638992"
       style="fill:none;stroke:#000000;stroke-width:0.2;stroke-linecap:butt;stroke-linejoin:miter;stroke-opacity:1;stroke-miterlimit:4;stroke-dasharray:none" />
    <path
       id="path1783"
       d="M 45.901355,78.637428 25.916176,59.487"
       style="fill:none;stroke:#000000;stroke-width:0.2;stroke-linecap:butt;stroke-linejoin:miter;stroke-opacity:1;stroke-miterlimit:4;stroke-dasharray:none" />
  </g>
</svg>
