<?xml version="1.0" encoding="UTF-8" standalone="no"?>
<!-- Created with Inkscape (http://www.inkscape.org/) -->

<svg
   width="119mm"
   height="62mm"
   viewBox="0 0 119 62"
   version="1.1"
   id="svg5"
   sodipodi:docname="Camins.svg"
   inkscape:version="1.2.1 (9c6d41e410, 2022-07-14)"
   xmlns:inkscape="http://www.inkscape.org/namespaces/inkscape"
   xmlns:sodipodi="http://sodipodi.sourceforge.net/DTD/sodipodi-0.dtd"
   xmlns="http://www.w3.org/2000/svg"
   xmlns:svg="http://www.w3.org/2000/svg">
  <sodipodi:namedview
     id="namedview7"
     pagecolor="#ffffff"
     bordercolor="#999999"
     borderopacity="1"
     inkscape:showpageshadow="0"
     inkscape:pageopacity="0"
     inkscape:pagecheckerboard="0"
     inkscape:deskcolor="#d1d1d1"
     inkscape:document-units="mm"
     showgrid="false"
     inkscape:zoom="1.4142136"
     inkscape:cx="-49.497475"
     inkscape:cy="158.39192"
     inkscape:window-width="1920"
     inkscape:window-height="1017"
     inkscape:window-x="-8"
     inkscape:window-y="-8"
     inkscape:window-maximized="1"
     inkscape:current-layer="layer1" />
  <defs
     id="defs2">
    <clipPath
       id="clipPath9952">
      <path
         clip-rule="nonzero"
         d="M 0,3 H 6 V 7.488281 H 0 Z m 0,0"
         id="path3724" />
    </clipPath>
    <clipPath
       id="clipPath726">
      <path
         clip-rule="nonzero"
         d="M 0,0 H 6 V 4.289063 H 0 Z m 0,0"
         id="path8731" />
    </clipPath>
    <clipPath
       id="clipPath7223">
      <path
         clip-rule="nonzero"
         d="M 0,3 H 6 V 7.488281 H 0 Z m 0,0"
         id="path5088" />
    </clipPath>
    <clipPath
       id="clipPath1158">
      <path
         clip-rule="nonzero"
         d="M 6,0 H 8.84375 V 4 H 6 Z m 0,0"
         id="path8042" />
    </clipPath>
    <clipPath
       id="clipPath8195">
      <path
         clip-rule="nonzero"
         d="M 0,0 H 14 V 10.671875 H 0 Z m 0,0"
         id="path3198" />
    </clipPath>
    <clipPath
       id="clipPath844">
      <path
         clip-rule="nonzero"
         d="M 0,7 H 14 V 18.558594 H 0 Z m 0,0"
         id="path4677" />
    </clipPath>
    <clipPath
       id="clipPath8685">
      <path
         clip-rule="nonzero"
         d="m 15,0 h 4.917969 V 9 H 15 Z m 0,0"
         id="path9560" />
    </clipPath>
    <clipPath
       id="clipPath6742">
      <path
         clip-rule="nonzero"
         d="M 0,0 H 13 V 10.671875 H 0 Z m 0,0"
         id="path1629" />
    </clipPath>
    <clipPath
       id="clipPath2345">
      <path
         clip-rule="nonzero"
         d="M 0,7 H 13 V 18.558594 H 0 Z m 0,0"
         id="path7858" />
    </clipPath>
  </defs>
  <g
     inkscape:label="Capa 1"
     inkscape:groupmode="layer"
     id="layer1">
    <path
       style="fill:none;fill-opacity:1;stroke:#8b8b8b;stroke-width:0.2;stroke-linecap:round;stroke-dasharray:none;stroke-dashoffset:0;stroke-opacity:1"
       d="m 7.2257486,50.904226 c 0,0 25.7898464,-8.99225 51.3577594,-21.176449 0,0 29.928382,1.505608 48.737152,-19.582691 0,0 -31.469491,-4.4136685 -48.739372,19.583956 0,0 -30.179088,-0.742119 -51.3555394,21.175184 z"
       id="path7674"
       sodipodi:nodetypes="ccccc" />
    <path
       style="fill:none;fill-opacity:1;stroke:#8b8b8b;stroke-width:0.2;stroke-linecap:round;stroke-dasharray:none;stroke-dashoffset:0;stroke-opacity:1"
       d="m 6.9779375,50.966933 c 0,0 22.5834225,-11.788646 51.5842015,-21.246705 0,0 28.682163,-13.488414 48.938751,-19.633206"
       id="path7676"
       sodipodi:nodetypes="ccc" />
    <path
       style="fill:none;fill-opacity:1;stroke:#8b8b8b;stroke-width:0.2;stroke-linecap:round;stroke-dasharray:none;stroke-dashoffset:0;stroke-opacity:1"
       d="m 7.2257486,50.904226 c 0,0 27.0790964,-1.154817 51.3577594,-21.176449 0,0 27.00702,-0.879001 48.737152,-19.582691 0,0 -29.957034,-1.5364421 -48.739372,19.583956 0,0 -30.702359,3.115982 -51.3555394,21.175184 z"
       id="path7678"
       sodipodi:nodetypes="ccccc" />
    <path
       style="fill:none;fill-opacity:1;stroke:#8b8b8b;stroke-width:0.2;stroke-linecap:round;stroke-dasharray:none;stroke-dashoffset:0;stroke-opacity:1"
       d="m 7.2257486,50.904226 c 0,0 29.0396724,1.81248 51.3577594,-21.176449 0,0 25.010642,-3.978926 48.737152,-19.582691 0,0 -28.823864,1.461915 -48.739372,19.583956 0,0 -30.055016,6.184517 -51.3555394,21.175184 z"
       id="path7680"
       sodipodi:nodetypes="ccccc" />
    <path
       style="fill:none;fill-opacity:1;stroke:#8b8b8b;stroke-width:0.2;stroke-linecap:round;stroke-dasharray:none;stroke-dashoffset:0;stroke-opacity:1"
       d="m 7.2257486,50.904226 c 0,0 25.7875764,-4.667832 51.3577594,-21.176449 0,0 23.570356,-6.959876 48.737152,-19.582691 0,0 -26.535557,4.542313 -48.739372,19.583956 0,0 -31.068312,-3.834246 -51.3555394,21.175184 z"
       id="path7682"
       sodipodi:nodetypes="ccccc" />
    <path
       style="fill:none;fill-opacity:1;stroke:#8b8b8b;stroke-width:0.2;stroke-linecap:round;stroke-dasharray:none;stroke-dashoffset:0;stroke-opacity:1"
       d="m 7.2257486,50.904226 c 0,0 29.4120894,4.931411 51.3577594,-21.176449 0,0 32.413163,3.707393 48.737152,-19.582691 0,0 -34.672932,-6.8793592 -48.739372,19.583956 0,0 -32.630793,-6.034727 -51.3555394,21.175184 z"
       id="path7686"
       sodipodi:nodetypes="ccccc" />
    <path
       style="fill:none;fill-opacity:1;stroke:#000000;stroke-width:0.5;stroke-linecap:round;stroke-dasharray:none;stroke-opacity:1"
       d="m 6.8713964,51.028615 c 0,0 14.8522266,-29.460152 51.6535506,-21.411477 0,0 8.338973,-27.5952119 49.058123,-19.530997 0,0 -14.030392,25.070509 -49.014707,19.574317 0,0 -15.255504,27.13857 -51.6969666,21.368157 z"
       id="path5494"
       sodipodi:nodetypes="ccccc" />
    <g
       inkscape:label=""
       transform="translate(21.234599,25.31569)"
       id="g12687">
      <g
         clip-path="url(#clipPath8195)"
         id="g17"
         transform="matrix(0.352778,0,0,0.352778,-0.79845068,2.4376208)">
        <g
           fill="#000000"
           fill-opacity="1"
           id="g15">
          <g
             id="use13"
             transform="translate(0,10.672)">
            <path
               d="m 12.59375,-9.34375 c 0.3125,0 1.140625,0 1.140625,-0.796875 0,-0.546875 -0.46875,-0.546875 -0.921875,-0.546875 H 7.328125 c -3.703125,0 -6.390625,4.140625 -6.390625,7.0625 0,2.109375 1.359375,3.875 3.59375,3.875 2.921875,0 6.125,-3.15625 6.125,-6.859375 0,-0.96875 -0.21875,-1.921875 -0.8125,-2.734375 z M 4.5625,-0.25 c -1.265625,0 -2.1875,-0.96875 -2.1875,-2.671875 0,-1.484375 0.890625,-6.421875 4.53125,-6.421875 1.078125,0 2.265625,0.515625 2.265625,2.4375 0,0.859375 -0.40625,2.9375 -1.265625,4.375 C 7.015625,-1.0625 5.671875,-0.25 4.5625,-0.25 Z m 0,0"
               id="path23" />
          </g>
        </g>
      </g>
    </g>
    <g
       inkscape:label=""
       transform="translate(40.317643,45.614809)"
       id="g12786">
      <g
         clip-path="url(#clipPath844)"
         id="g24"
         transform="matrix(0.352778,0,0,0.352778,-0.330729,0.0215194)">
        <g
           fill="#000000"
           fill-opacity="1"
           id="g22">
          <g
             id="use20"
             transform="translate(0,18.559)">
            <path
               d="m 12.59375,-9.34375 c 0.3125,0 1.140625,0 1.140625,-0.796875 0,-0.546875 -0.46875,-0.546875 -0.921875,-0.546875 H 7.328125 c -3.703125,0 -6.390625,4.140625 -6.390625,7.0625 0,2.109375 1.359375,3.875 3.59375,3.875 2.921875,0 6.125,-3.15625 6.125,-6.859375 0,-0.96875 -0.21875,-1.921875 -0.8125,-2.734375 z M 4.5625,-0.25 c -1.265625,0 -2.1875,-0.96875 -2.1875,-2.671875 0,-1.484375 0.890625,-6.421875 4.53125,-6.421875 1.078125,0 2.265625,0.515625 2.265625,2.4375 0,0.859375 -0.40625,2.9375 -1.265625,4.375 C 7.015625,-1.0625 5.671875,-0.25 4.5625,-0.25 Z m 0,0"
               id="path36" />
          </g>
        </g>
      </g>
      <g
         clip-path="url(#clipPath8685)"
         id="g30"
         transform="matrix(0.352778,0,0,0.352778,-0.330729,0.0215194)">
        <g
           fill="#000000"
           fill-opacity="1"
           id="g28">
          <g
             id="use26"
             transform="translate(14.684,9.5640001)">
            <path
               d="m 4.359375,-8.171875 c 0.078125,-0.21875 0.15625,-0.375 0.15625,-0.546875 0,-0.5 -0.453125,-0.90625 -0.984375,-0.90625 -0.484375,0 -0.796875,0.328125 -0.90625,0.78125 l -2.0625,7.515625 c 0,0.03125 -0.0625,0.21875 -0.0625,0.25 0,0.1875 0.453125,0.296875 0.578125,0.296875 0.109375,0 0.125,-0.046875 0.234375,-0.265625 z m 0,0"
               id="path40" />
          </g>
        </g>
      </g>
    </g>
    <g
       inkscape:label=""
       transform="translate(70.626006,6.4197325)"
       id="g12889">
      <g
         clip-path="url(#clipPath6742)"
         id="g12887"
         transform="matrix(0.352778,0,0,0.352778,-0.225998,0.00546808)">
        <g
           fill="#000000"
           fill-opacity="1"
           id="g12885">
          <g
             id="g12883"
             transform="translate(0,10.672)">
            <path
               d="m 7.109375,-9.34375 h 4.109375 c 0.328125,0 1.140625,0 1.140625,-0.796875 0,-0.546875 -0.46875,-0.546875 -0.90625,-0.546875 h -6.8125 c -0.578125,0 -1.421875,0 -2.5625,1.21875 -0.640625,0.71875 -1.4375,2.03125 -1.4375,2.1875 0,0.140625 0.125,0.1875 0.28125,0.1875 0.171875,0 0.1875,-0.0625 0.3125,-0.21875 C 2.53125,-9.34375 3.8125,-9.34375 4.4375,-9.34375 H 6.5 l -2.578125,8.5 c -0.125,0.375 -0.125,0.421875 -0.125,0.5 0,0.265625 0.171875,0.609375 0.65625,0.609375 0.78125,0 0.90625,-0.65625 0.96875,-1.03125 z m 0,0"
               id="path12881" />
          </g>
        </g>
      </g>
    </g>
    <g
       inkscape:label=""
       transform="translate(93.544369,23.912525)"
       id="g12999">
      <g
         clip-path="url(#clipPath2345)"
         id="g21"
         transform="matrix(0.352778,0,0,0.352778,-0.225998,0.0215194)">
        <g
           fill="#000000"
           fill-opacity="1"
           id="g19">
          <g
             id="use17"
             transform="translate(0,18.559)">
            <path
               d="m 7.109375,-9.34375 h 4.109375 c 0.328125,0 1.140625,0 1.140625,-0.796875 0,-0.546875 -0.46875,-0.546875 -0.90625,-0.546875 h -6.8125 c -0.578125,0 -1.421875,0 -2.5625,1.21875 -0.640625,0.71875 -1.4375,2.03125 -1.4375,2.1875 0,0.140625 0.125,0.1875 0.28125,0.1875 0.171875,0 0.1875,-0.0625 0.3125,-0.21875 C 2.53125,-9.34375 3.8125,-9.34375 4.4375,-9.34375 H 6.5 l -2.578125,8.5 c -0.125,0.375 -0.125,0.421875 -0.125,0.5 0,0.265625 0.171875,0.609375 0.65625,0.609375 0.78125,0 0.90625,-0.65625 0.96875,-1.03125 z m 0,0"
               id="path31" />
          </g>
        </g>
      </g>
      <g
         fill="#000000"
         fill-opacity="1"
         id="g25"
         transform="matrix(0.352778,0,0,0.352778,-0.225998,0.0215194)">
        <g
           id="use23"
           transform="translate(13.309,9.5640001)">
          <path
             d="m 4.359375,-8.171875 c 0.078125,-0.21875 0.15625,-0.375 0.15625,-0.546875 0,-0.5 -0.453125,-0.90625 -0.984375,-0.90625 -0.484375,0 -0.796875,0.328125 -0.90625,0.78125 l -2.0625,7.515625 c 0,0.03125 -0.0625,0.21875 -0.0625,0.25 0,0.1875 0.453125,0.296875 0.578125,0.296875 0.109375,0 0.125,-0.046875 0.234375,-0.265625 z m 0,0"
             id="path35" />
        </g>
      </g>
    </g>
  </g>
</svg>
